<svg xmlns="http://www.w3.org/2000/svg" viewBox="0 0 440 260" width="440" height="260" role="img" aria-label="Minesweeper grid representing a vulnerability scan">

<style>
  :root{
    --panel:#f6f8fa;--border:#d0d7de;--fg:#24292f;--dim:#59636e;
    --green:#1a7f37;--green-dim:#dafbe1;--red:#cf222e;--red-dim:#ffebe9;
    --yellow:#9a6700;--blue:#0969da;--cyan:#1b7c83;--bg:#ffffff;
  }
  text{font-family:ui-monospace,SFMono-Regular,Menlo,Consolas,monospace}
  .panel{fill:var(--panel)}
  .edge{stroke:var(--border);stroke-width:1}
  .fg{fill:var(--fg)} .dim{fill:var(--dim)} .gr{fill:var(--green)}
  .rd{fill:var(--red)} .yl{fill:var(--yellow)} .bl{fill:var(--blue)} .cy{fill:var(--cyan)}
  .f10{font-size:10px} .f11{font-size:11px} .f12{font-size:12px} .f13{font-size:13px}
  @media (prefers-reduced-motion:reduce){*{animation:none !important}}
</style>
<rect x="0" y="0" width="440" height="260" rx="10" class="panel"/>
<rect x="0.5" y="0.5" width="439" height="259" rx="10" fill="none" class="edge"/>
<defs></defs>

<text x="220" y="20" text-anchor="middle" class="dim f11">vuln-grid --scan</text>
<g class="cell" style="animation:cellCycle 15s linear infinite both;animation-delay:0.00s"><rect x="46" y="40" width="28" height="28" rx="4" style="fill:var(--panel)" class="edge"/><text x="60" y="58" text-anchor="middle" class="bl f13">1</text></g><g class="cell" style="animation:cellCycle 15s linear infinite both;animation-delay:0.15s"><rect x="78" y="40" width="28" height="28" rx="4" style="fill:var(--panel)" class="edge"/><text x="92" y="58" text-anchor="middle" class="bl f13">1</text></g><g class="cell" style="animation:cellCycle 15s linear infinite both;animation-delay:0.30s"><rect x="110" y="40" width="28" height="28" rx="4" style="fill:var(--panel)" class="edge"/></g><g class="cell" style="animation:cellCycle 15s linear infinite both;animation-delay:0.45s"><rect x="142" y="40" width="28" height="28" rx="4" style="fill:var(--panel)" class="edge"/></g><g class="cell" style="animation:cellCycle 15s linear infinite both;animation-delay:0.60s"><rect x="174" y="40" width="28" height="28" rx="4" style="fill:var(--panel)" class="edge"/></g><g class="cell" style="animation:cellCycle 15s linear infinite both;animation-delay:0.75s"><rect x="206" y="40" width="28" height="28" rx="4" style="fill:var(--panel)" class="edge"/></g><g class="cell" style="animation:cellCycle 15s linear infinite both;animation-delay:0.90s"><rect x="238" y="40" width="28" height="28" rx="4" style="fill:var(--panel)" class="edge"/></g><g class="cell" style="animation:cellCycle 15s linear infinite both;animation-delay:1.05s"><rect x="270" y="40" width="28" height="28" rx="4" style="fill:var(--panel)" class="edge"/><text x="284" y="58" text-anchor="middle" class="bl f13">1</text></g><g class="cell" style="animation:cellCycle 15s linear infinite both;animation-delay:1.20s"><rect x="302" y="40" width="28" height="28" rx="4" style="fill:var(--panel)" class="edge"/><text x="316" y="58" text-anchor="middle" class="rd f13">3</text></g><g class="cell" style="animation:cellCycle 15s linear infinite both;animation-delay:1.35s"><rect x="334" y="40" width="28" height="28" rx="4" style="fill:var(--red-dim)" class="edge"/><text x="348" y="58" text-anchor="middle" class="rd f13">*</text></g><g class="cell" style="animation:cellCycle 15s linear infinite both;animation-delay:1.50s"><rect x="366" y="40" width="28" height="28" rx="4" style="fill:var(--panel)" class="edge"/><text x="380" y="58" text-anchor="middle" class="gr f13">2</text></g><g class="cell" style="animation:cellCycle 15s linear infinite both;animation-delay:0.08s"><rect x="46" y="72" width="28" height="28" rx="4" style="fill:var(--red-dim)" class="edge"/><text x="60" y="90" text-anchor="middle" class="rd f13">*</text></g><g class="cell" style="animation:cellCycle 15s linear infinite both;animation-delay:0.23s"><rect x="78" y="72" width="28" height="28" rx="4" style="fill:var(--panel)" class="edge"/><text x="92" y="90" text-anchor="middle" class="bl f13">1</text></g><g class="cell" style="animation:cellCycle 15s linear infinite both;animation-delay:0.38s"><rect x="110" y="72" width="28" height="28" rx="4" style="fill:var(--panel)" class="edge"/></g><g class="cell" style="animation:cellCycle 15s linear infinite both;animation-delay:0.53s"><rect x="142" y="72" width="28" height="28" rx="4" style="fill:var(--panel)" class="edge"/></g><g class="cell" style="animation:cellCycle 15s linear infinite both;animation-delay:0.68s"><rect x="174" y="72" width="28" height="28" rx="4" style="fill:var(--panel)" class="edge"/></g><g class="cell" style="animation:cellCycle 15s linear infinite both;animation-delay:0.83s"><rect x="206" y="72" width="28" height="28" rx="4" style="fill:var(--panel)" class="edge"/></g><g class="cell" style="animation:cellCycle 15s linear infinite both;animation-delay:0.98s"><rect x="238" y="72" width="28" height="28" rx="4" style="fill:var(--panel)" class="edge"/></g><g class="cell" style="animation:cellCycle 15s linear infinite both;animation-delay:1.13s"><rect x="270" y="72" width="28" height="28" rx="4" style="fill:var(--panel)" class="edge"/><text x="284" y="90" text-anchor="middle" class="bl f13">1</text></g><g class="cell" style="animation:cellCycle 15s linear infinite both;animation-delay:1.28s"><rect x="302" y="72" width="28" height="28" rx="4" style="fill:var(--red-dim)" class="edge"/><text x="316" y="90" text-anchor="middle" class="rd f13">*</text></g><g class="cell" style="animation:cellCycle 15s linear infinite both;animation-delay:1.43s"><rect x="334" y="72" width="28" height="28" rx="4" style="fill:var(--red-dim)" class="edge"/><text x="348" y="90" text-anchor="middle" class="rd f13">*</text></g><g class="cell" style="animation:cellCycle 15s linear infinite both;animation-delay:1.58s"><rect x="366" y="72" width="28" height="28" rx="4" style="fill:var(--panel)" class="edge"/><text x="380" y="90" text-anchor="middle" class="gr f13">2</text></g><g class="cell" style="animation:cellCycle 15s linear infinite both;animation-delay:0.16s"><rect x="46" y="104" width="28" height="28" rx="4" style="fill:var(--panel)" class="edge"/><text x="60" y="122" text-anchor="middle" class="bl f13">1</text></g><g class="cell" style="animation:cellCycle 15s linear infinite both;animation-delay:0.31s"><rect x="78" y="104" width="28" height="28" rx="4" style="fill:var(--panel)" class="edge"/><text x="92" y="122" text-anchor="middle" class="bl f13">1</text></g><g class="cell" style="animation:cellCycle 15s linear infinite both;animation-delay:0.46s"><rect x="110" y="104" width="28" height="28" rx="4" style="fill:var(--panel)" class="edge"/></g><g class="cell" style="animation:cellCycle 15s linear infinite both;animation-delay:0.61s"><rect x="142" y="104" width="28" height="28" rx="4" style="fill:var(--panel)" class="edge"/></g><g class="cell" style="animation:cellCycle 15s linear infinite both;animation-delay:0.76s"><rect x="174" y="104" width="28" height="28" rx="4" style="fill:var(--panel)" class="edge"/><text x="188" y="122" text-anchor="middle" class="bl f13">1</text></g><g class="cell" style="animation:cellCycle 15s linear infinite both;animation-delay:0.91s"><rect x="206" y="104" width="28" height="28" rx="4" style="fill:var(--panel)" class="edge"/><text x="220" y="122" text-anchor="middle" class="gr f13">2</text></g><g class="cell" style="animation:cellCycle 15s linear infinite both;animation-delay:1.06s"><rect x="238" y="104" width="28" height="28" rx="4" style="fill:var(--panel)" class="edge"/><text x="252" y="122" text-anchor="middle" class="gr f13">2</text></g><g class="cell" style="animation:cellCycle 15s linear infinite both;animation-delay:1.21s"><rect x="270" y="104" width="28" height="28" rx="4" style="fill:var(--panel)" class="edge"/><text x="284" y="122" text-anchor="middle" class="gr f13">2</text></g><g class="cell" style="animation:cellCycle 15s linear infinite both;animation-delay:1.36s"><rect x="302" y="104" width="28" height="28" rx="4" style="fill:var(--panel)" class="edge"/><text x="316" y="122" text-anchor="middle" class="rd f13">3</text></g><g class="cell" style="animation:cellCycle 15s linear infinite both;animation-delay:1.51s"><rect x="334" y="104" width="28" height="28" rx="4" style="fill:var(--panel)" class="edge"/><text x="348" y="122" text-anchor="middle" class="rd f13">3</text></g><g class="cell" style="animation:cellCycle 15s linear infinite both;animation-delay:1.66s"><rect x="366" y="104" width="28" height="28" rx="4" style="fill:var(--panel)" class="edge"/><text x="380" y="122" text-anchor="middle" class="rd f13">3</text></g><g class="cell" style="animation:cellCycle 15s linear infinite both;animation-delay:0.24s"><rect x="46" y="136" width="28" height="28" rx="4" style="fill:var(--panel)" class="edge"/></g><g class="cell" style="animation:cellCycle 15s linear infinite both;animation-delay:0.39s"><rect x="78" y="136" width="28" height="28" rx="4" style="fill:var(--panel)" class="edge"/></g><g class="cell" style="animation:cellCycle 15s linear infinite both;animation-delay:0.54s"><rect x="110" y="136" width="28" height="28" rx="4" style="fill:var(--panel)" class="edge"/></g><g class="cell" style="animation:cellCycle 15s linear infinite both;animation-delay:0.69s"><rect x="142" y="136" width="28" height="28" rx="4" style="fill:var(--panel)" class="edge"/></g><g class="cell" style="animation:cellCycle 15s linear infinite both;animation-delay:0.84s"><rect x="174" y="136" width="28" height="28" rx="4" style="fill:var(--panel)" class="edge"/><text x="188" y="154" text-anchor="middle" class="bl f13">1</text></g><g class="cell" style="animation:cellCycle 15s linear infinite both;animation-delay:0.99s"><rect x="206" y="136" width="28" height="28" rx="4" style="fill:var(--red-dim)" class="edge"/><text x="220" y="154" text-anchor="middle" class="rd f13">*</text></g><g class="cell" style="animation:cellCycle 15s linear infinite both;animation-delay:1.14s"><rect x="238" y="136" width="28" height="28" rx="4" style="fill:var(--red-dim)" class="edge"/><text x="252" y="154" text-anchor="middle" class="rd f13">*</text></g><g class="cell" style="animation:cellCycle 15s linear infinite both;animation-delay:1.29s"><rect x="270" y="136" width="28" height="28" rx="4" style="fill:var(--panel)" class="edge"/><text x="284" y="154" text-anchor="middle" class="bl f13">1</text></g><g class="cell" style="animation:cellCycle 15s linear infinite both;animation-delay:1.44s"><rect x="302" y="136" width="28" height="28" rx="4" style="fill:var(--panel)" class="edge"/><text x="316" y="154" text-anchor="middle" class="bl f13">1</text></g><g class="cell" style="animation:cellCycle 15s linear infinite both;animation-delay:1.59s"><rect x="334" y="136" width="28" height="28" rx="4" style="fill:var(--red-dim)" class="edge"/><text x="348" y="154" text-anchor="middle" class="rd f13">*</text></g><g class="cell" style="animation:cellCycle 15s linear infinite both;animation-delay:1.74s"><rect x="366" y="136" width="28" height="28" rx="4" style="fill:var(--red-dim)" class="edge"/><text x="380" y="154" text-anchor="middle" class="rd f13">*</text></g><g class="cell" style="animation:cellCycle 15s linear infinite both;animation-delay:0.32s"><rect x="46" y="168" width="28" height="28" rx="4" style="fill:var(--panel)" class="edge"/><text x="60" y="186" text-anchor="middle" class="bl f13">1</text></g><g class="cell" style="animation:cellCycle 15s linear infinite both;animation-delay:0.47s"><rect x="78" y="168" width="28" height="28" rx="4" style="fill:var(--panel)" class="edge"/><text x="92" y="186" text-anchor="middle" class="bl f13">1</text></g><g class="cell" style="animation:cellCycle 15s linear infinite both;animation-delay:0.62s"><rect x="110" y="168" width="28" height="28" rx="4" style="fill:var(--panel)" class="edge"/><text x="124" y="186" text-anchor="middle" class="bl f13">1</text></g><g class="cell" style="animation:cellCycle 15s linear infinite both;animation-delay:0.77s"><rect x="142" y="168" width="28" height="28" rx="4" style="fill:var(--panel)" class="edge"/><text x="156" y="186" text-anchor="middle" class="bl f13">1</text></g><g class="cell" style="animation:cellCycle 15s linear infinite both;animation-delay:0.92s"><rect x="174" y="168" width="28" height="28" rx="4" style="fill:var(--panel)" class="edge"/><text x="188" y="186" text-anchor="middle" class="gr f13">2</text></g><g class="cell" style="animation:cellCycle 15s linear infinite both;animation-delay:1.07s"><rect x="206" y="168" width="28" height="28" rx="4" style="fill:var(--panel)" class="edge"/><text x="220" y="186" text-anchor="middle" class="gr f13">2</text></g><g class="cell" style="animation:cellCycle 15s linear infinite both;animation-delay:1.22s"><rect x="238" y="168" width="28" height="28" rx="4" style="fill:var(--panel)" class="edge"/><text x="252" y="186" text-anchor="middle" class="rd f13">3</text></g><g class="cell" style="animation:cellCycle 15s linear infinite both;animation-delay:1.37s"><rect x="270" y="168" width="28" height="28" rx="4" style="fill:var(--panel)" class="edge"/><text x="284" y="186" text-anchor="middle" class="gr f13">2</text></g><g class="cell" style="animation:cellCycle 15s linear infinite both;animation-delay:1.52s"><rect x="302" y="168" width="28" height="28" rx="4" style="fill:var(--panel)" class="edge"/><text x="316" y="186" text-anchor="middle" class="gr f13">2</text></g><g class="cell" style="animation:cellCycle 15s linear infinite both;animation-delay:1.67s"><rect x="334" y="168" width="28" height="28" rx="4" style="fill:var(--panel)" class="edge"/><text x="348" y="186" text-anchor="middle" class="gr f13">2</text></g><g class="cell" style="animation:cellCycle 15s linear infinite both;animation-delay:1.82s"><rect x="366" y="168" width="28" height="28" rx="4" style="fill:var(--panel)" class="edge"/><text x="380" y="186" text-anchor="middle" class="gr f13">2</text></g><g class="cell" style="animation:cellCycle 15s linear infinite both;animation-delay:0.40s"><rect x="46" y="200" width="28" height="28" rx="4" style="fill:var(--red-dim)" class="edge"/><text x="60" y="218" text-anchor="middle" class="rd f13">*</text></g><g class="cell" style="animation:cellCycle 15s linear infinite both;animation-delay:0.55s"><rect x="78" y="200" width="28" height="28" rx="4" style="fill:var(--panel)" class="edge"/><text x="92" y="218" text-anchor="middle" class="bl f13">1</text></g><g class="cell" style="animation:cellCycle 15s linear infinite both;animation-delay:0.70s"><rect x="110" y="200" width="28" height="28" rx="4" style="fill:var(--panel)" class="edge"/><text x="124" y="218" text-anchor="middle" class="bl f13">1</text></g><g class="cell" style="animation:cellCycle 15s linear infinite both;animation-delay:0.85s"><rect x="142" y="200" width="28" height="28" rx="4" style="fill:var(--red-dim)" class="edge"/><text x="156" y="218" text-anchor="middle" class="rd f13">*</text></g><g class="cell" style="animation:cellCycle 15s linear infinite both;animation-delay:1.00s"><rect x="174" y="200" width="28" height="28" rx="4" style="fill:var(--panel)" class="edge"/><text x="188" y="218" text-anchor="middle" class="bl f13">1</text></g><g class="cell" style="animation:cellCycle 15s linear infinite both;animation-delay:1.15s"><rect x="206" y="200" width="28" height="28" rx="4" style="fill:var(--panel)" class="edge"/></g><g class="cell" style="animation:cellCycle 15s linear infinite both;animation-delay:1.30s"><rect x="238" y="200" width="28" height="28" rx="4" style="fill:var(--panel)" class="edge"/><text x="252" y="218" text-anchor="middle" class="bl f13">1</text></g><g class="cell" style="animation:cellCycle 15s linear infinite both;animation-delay:1.45s"><rect x="270" y="200" width="28" height="28" rx="4" style="fill:var(--red-dim)" class="edge"/><text x="284" y="218" text-anchor="middle" class="rd f13">*</text></g><g class="cell" style="animation:cellCycle 15s linear infinite both;animation-delay:1.60s"><rect x="302" y="200" width="28" height="28" rx="4" style="fill:var(--panel)" class="edge"/><text x="316" y="218" text-anchor="middle" class="bl f13">1</text></g><g class="cell" style="animation:cellCycle 15s linear infinite both;animation-delay:1.75s"><rect x="334" y="200" width="28" height="28" rx="4" style="fill:var(--panel)" class="edge"/></g><g class="cell" style="animation:cellCycle 15s linear infinite both;animation-delay:1.90s"><rect x="366" y="200" width="28" height="28" rx="4" style="fill:var(--panel)" class="edge"/></g>
<text x="14" y="248" class="dim f11">* vulnerable</text>
<text x="140" y="248" class="rd f11">1-3 severity</text>
<text x="278" y="248" class="gr f11">clean</text>
<style>
  @keyframes cellCycle{
    0%{opacity:0}
    3%{opacity:1}
    88%{opacity:1}
    100%{opacity:0}
  }
</style>
</svg>
